<?xml version="1.0" standalone="no"?>
<!DOCTYPE svg PUBLIC "-//W3C//DTD SVG 20010904//EN"
 "http://www.w3.org/TR/2001/REC-SVG-20010904/DTD/svg10.dtd">
<svg version="1.0" xmlns="http://www.w3.org/2000/svg"
 width="442.000000pt" height="442.000000pt" viewBox="0 0 442.000000 442.000000"
 preserveAspectRatio="xMidYMid meet">
<metadata>
Created by potrace 1.11, written by Peter Selinger 2001-2013
</metadata>
<g transform="translate(0.000000,442.000000) scale(0.100000,-0.100000)"
fill="#000000" stroke="none">
<path d="M30 2210 l0 -2180 863 0 862 1 -110 33 c-323 96 -579 246 -823 481
-327 314 -530 710 -596 1166 -21 139 -21 408 -1 548 106 727 582 1327 1265
1596 160 62 404 118 560 127 l45 3 3 78 3 77 -61 0 c-75 0 -117 20 -136 65
-16 40 -18 122 -4 159 l10 26 -940 0 -940 0 0 -2180z"/>
<path d="M2520 4364 c14 -37 12 -119 -4 -159 -19 -45 -61 -65 -136 -65 l-61 0
3 -77 3 -78 45 -3 c289 -16 637 -132 905 -301 l80 -50 30 37 c113 140 129 144
234 57 103 -83 104 -103 11 -214 l-51 -62 93 -98 c265 -279 438 -626 515
-1033 22 -119 25 -522 5 -638 -40 -226 -97 -400 -189 -585 -107 -213 -233
-385 -405 -550 -244 -235 -500 -385 -823 -481 l-110 -33 863 -1 862 0 0 2180
0 2180 -940 0 -940 0 10 -26z"/>
<path d="M1976 3689 c-408 -56 -811 -278 -1075 -592 -193 -231 -314 -481 -377
-782 -25 -117 -28 -151 -28 -330 0 -178 3 -214 27 -326 148 -701 661 -1216
1357 -1360 100 -21 142 -24 330 -24 188 0 230 3 330 24 696 144 1209 659 1357
1360 24 112 27 148 27 326 0 178 -3 214 -27 325 -14 69 -33 149 -42 178 l-16
53 -47 -27 c-221 -126 -429 -291 -668 -529 -266 -265 -437 -480 -608 -767 -97
-163 -197 -362 -256 -511 l-47 -118 -48 138 c-98 282 -187 465 -302 622 -71
97 -226 251 -373 370 l-115 94 95 -6 c223 -13 443 -99 648 -254 l86 -65 16 23
c79 123 340 398 510 539 188 155 431 308 633 397 113 50 339 127 405 138 30 5
42 12 42 24 0 26 -110 237 -169 326 -254 378 -637 637 -1091 736 -110 24 -454
35 -574 18z"/>
</g>
</svg>
